<svg width="14" height="17" viewBox="0 0 14 17" fill="none" xmlns="http://www.w3.org/2000/svg">
<path d="M1.15386 16.9235C0.958174 16.9209 0.766074 16.8706 0.594154 16.7771C0.413727 16.6781 0.263324 16.5322 0.158769 16.3549C0.0542141 16.1777 -0.000630008 15.9755 5.46012e-06 15.7696V1.13122C0.00400747 0.927208 0.0620402 0.727904 0.168187 0.553631C0.274333 0.379359 0.424797 0.236352 0.604235 0.139193C0.783673 0.0420336 0.985667 -0.00580258 1.18962 0.000561419C1.39358 0.00692542 1.5922 0.0672621 1.76523 0.175419L13.4587 7.48602C13.6243 7.58878 13.7609 7.73206 13.8556 7.90233C13.9503 8.0726 14 8.26421 14 8.45905C14 8.65388 13.9503 8.8455 13.8556 9.01576C13.7609 9.18603 13.6243 9.32932 13.4587 9.43207L1.76523 16.7427C1.58307 16.8605 1.3708 16.9233 1.15386 16.9235ZM1.15386 0.855676C1.10878 0.843203 1.06116 0.843203 1.01608 0.855676C0.968648 0.877564 0.928676 0.912892 0.901125 0.957281C0.873574 1.00167 0.859653 1.05317 0.861089 1.10539V15.7438C0.862362 15.7954 0.877267 15.8458 0.904291 15.8898C0.931316 15.9338 0.9695 15.9699 1.01497 15.9944C1.06044 16.0189 1.11157 16.0309 1.16318 16.0292C1.2148 16.0276 1.26505 16.0123 1.30885 15.9849L13.0282 8.70876C13.071 8.6826 13.1063 8.6459 13.1308 8.60217C13.1553 8.55845 13.1681 8.50917 13.1681 8.45905C13.1681 8.40893 13.1553 8.35964 13.1308 8.31592C13.1063 8.2722 13.071 8.2355 13.0282 8.20933L1.30885 0.907341C1.2636 0.874846 1.20956 0.856832 1.15386 0.855676Z" fill="white"/>
</svg>
